<svg width="530" height="542" viewBox="0 0 530 542" fill="none" xmlns="http://www.w3.org/2000/svg">
<path d="M449.702 173.827L451.731 169.841L445.291 157.985L447.341 144.811L439.583 137.64L441.032 114.101L436.645 114.581L432.275 109.887L428.897 120.66H425.092L418.067 131.198L420.994 144.372L415.432 151.837L419.532 165.887H406.359L384.403 177.45L376.791 195.45L378.991 203.499V214.623L378.948 214.683L383.382 214.916L387.041 225.309L399.189 220.04L402.116 221.065L408.995 209.941L405.336 206.575L411.336 202.622L426.265 204.672L440.344 193.072L450.417 184.772L447.633 177.887L449.702 173.827Z" fill="#47D15C"/>
<path d="M449.702 173.827L451.731 169.841L445.291 157.985L447.341 144.811L439.583 137.64L441.032 114.101L436.645 114.581L432.275 109.887L428.897 120.66H425.092L418.067 131.198L420.994 144.372L415.432 151.837L419.532 165.887H406.359L384.403 177.45L376.791 195.45L378.991 203.499V214.623L378.948 214.683L383.382 214.916L387.041 225.309L399.189 220.04L402.116 221.065L408.995 209.941L405.336 206.575L411.336 202.622L426.265 204.672L440.344 193.072L450.417 184.772L447.633 177.887L449.702 173.827Z" fill="#47D15C"/>
<path d="M503.462 170.475L491.171 166.788C491.171 166.788 495.571 158.081 495.78 157.467C495.989 156.853 488.405 157.98 488.405 157.98L480.005 164.024L476.42 158.902L476.933 176.008L473.273 179.19L484.308 181.23L494.5 173.343L498.546 176.724L494.5 184.509L495.78 190.451L505.511 183.076L519.339 175.906L527.603 177.496L529.219 166.861L527.728 163.536L506.328 161.054L503.462 170.475Z" fill="#47D15C"/>
<path d="M519.345 144.844L495.716 142.416L476.416 158.896L480.001 164.018L488.401 157.974C488.401 157.974 495.98 156.848 495.776 157.461C495.572 158.074 491.167 166.782 491.167 166.782L503.458 170.469L506.326 161.046L527.726 163.528L519.345 144.844Z" fill="#03C020"/>
<path d="M495.717 142.416L458.817 112.152L441.032 114.102L439.583 137.641L447.341 144.812L445.292 157.986L451.732 169.842L449.703 173.828L463.721 175.287L469.866 182.149L473.274 179.187L476.934 176.005L476.423 158.899L495.717 142.416Z" fill="#ACD143"/>
<path d="M374.177 90.483L352.323 80.27L343.26 83.021L344.393 76.547L327.4 68.293L322.059 70.882L320.764 64.732L318.664 64.521L315.216 71.421L305.586 75.344L299.786 91.037L293.1 91.156L274.561 54.179L258.393 50.85C258.393 50.85 258.099 44.67 257.857 40.15L241.791 38.35L246.484 48.55L224.959 44.828L204.405 55.993L202.465 69.722V78.503L217.102 95.482L238.179 103.682L207.295 166.914L212.519 174.734L231.445 203.066L318.19 210.184L330.245 183.159L333.611 170.279L346.637 154.324L342.537 144.372L356.881 136.172L374.177 90.483Z" fill="#ACD143"/>
<path d="M191.293 51.138L187.247 31.717L192.911 17.317L187.085 11.167L186.761 0L177.698 0.323999L175.918 10.196L147.272 22.496L145.006 17.803L121.706 14.566L131.255 33.016L143.879 40.622L144.688 44.022L152.263 46.162L154.751 86.267L167.777 96.952L169.534 80.412L181.975 84.363L187.098 70.311L202.466 69.726L204.405 55.997L191.293 51.138Z" fill="#47D15C"/>
<path d="M274.56 54.179L293.107 91.154L299.793 91.035L305.593 75.342L315.223 71.419L318.671 64.519L320.771 64.73L324.655 51.135L316.077 41.91L312.997 44.993L306.848 27.993L302.316 10.193L301.021 20.227L289.692 31.232L286.455 45.632L272.213 40.453L259.105 40.293L257.854 40.153C258.096 44.669 258.39 50.853 258.39 50.853L274.56 54.179Z" fill="#03C020"/>
<path d="M342.541 144.37L357.909 150.078L355.863 173.207L363.036 186.233L369.183 182.867L369.915 188.283L362.157 199.7L372.257 214.337L378.947 214.689L378.99 214.629V203.504L376.79 195.455L384.402 177.455L406.358 165.892H419.53L415.43 151.842L420.992 144.377L418.063 131.198L425.088 120.66H428.893L432.271 109.887L409.128 104.387L402.654 110.699L390.516 91.44L384.528 95.324L374.175 90.486L356.88 136.178L342.541 144.37Z" fill="#03C020"/>
<path d="M450.122 313.427L458.904 292.058L440.022 292.204L433.289 284.153L397.433 270.594L377.962 283.379L363.618 279.763V295.278L355.275 313.427L359.08 322.283L351.908 330.26L344.589 327.186L316.339 333.186L313.014 343.9L311.1 350.068L308.582 352.068L322.487 348.848L332.733 350.169L332.294 355.439L357.763 350.169L363.033 369.198H371.815L367.277 382.809L372.985 393.055L392.745 383.249L416.745 379.149L427.138 374.759L428.308 364.928L432.289 361.392L433.577 354.121L437.969 355.73L445.14 343.73L442.359 327.336L455.679 323.531L450.122 313.427Z" fill="#47D15C"/>
<path d="M519.337 175.9L505.509 183.07L495.779 190.446L494.499 184.505L498.545 176.72L494.499 173.341L484.307 181.231L473.272 179.191L469.864 182.153L463.719 175.291L449.702 173.831L447.633 177.895L450.414 184.774L440.341 193.074L447.536 204.786L464.436 192.186L481.236 202.839L487.791 196.591L496.497 202.839L504.897 202.532L513.807 195.873L522.356 196.053L525.334 192.425L527.602 177.489L519.337 175.9Z" fill="#039520"/>
<path d="M378.943 214.687L372.253 214.335L362.153 199.698L369.911 188.281L369.179 182.865L363.032 186.231L355.859 173.205L357.909 150.079L342.538 144.371L346.638 154.324L333.612 170.279L330.244 183.159L318.19 210.185L312.09 223.849L310.797 251.021L320.287 245.951L318.969 251.659L331.269 256.782L333.464 251.659L345.764 258.099L371.882 252.268L369.182 228.241L378.943 214.687Z" fill="#47D15C"/>
<path d="M372.107 254.294L371.879 252.268L345.761 258.099L333.469 251.659L331.274 256.782L318.974 251.659L320.292 245.951L310.802 251.021L309.314 282.251L286.627 298.936L278.427 311.963L283.55 333.186L313.011 343.9L316.336 333.186L344.586 327.186L351.905 330.26L359.076 322.283L355.271 313.427L363.614 295.278V279.759L377.958 283.375L372.107 254.294Z" fill="#03C020"/>
<path d="M442.363 327.332L445.144 343.726L437.973 355.726L433.581 354.117L432.293 361.388L435.923 367.582L445.141 368.225L445.707 362.193L462.377 344.229L463.186 327.236L455.686 323.525L442.363 327.332Z" fill="#039520"/>
<path d="M435.924 367.584L432.294 361.39L428.313 364.926L427.143 374.757L416.75 379.147L392.75 383.247L395.543 390.842L428.882 392.299L433.737 382.427L444.257 377.734L445.148 368.234L435.924 367.584Z" fill="#03C020"/>
<path d="M372.985 393.052L367.277 382.806L371.815 369.195H363.033L357.763 350.167L332.295 355.437L332.734 350.167L322.489 348.85L308.584 352.07L302.144 356.607L291.894 379.439L283.112 383.245L280.732 386.465H305.214L312.532 391.002H326.584L331.854 414.713L343.125 416.47L342.979 420.57L351.579 423.462L361.715 413.014L384.049 402.814L395.54 390.838L392.747 383.243L372.985 393.052Z" fill="#ACD143"/>
<path d="M343.125 416.471L331.854 414.714L326.584 391.002H312.534L305.216 386.465H280.734L265.418 407.186L259.918 427.416H269.79L274.16 438.097L306.097 443.397L303.023 440.323L314.147 434.029L328.491 438.274L331.711 434.029L340.676 434.693L351.576 423.455L342.976 420.563L343.125 416.471Z" fill="#03C020"/>
<path d="M513.806 195.873L504.896 202.532L496.496 202.839L487.79 196.591L481.235 202.839L505.745 217.613L511.576 215.083L511.252 209.583L522.352 196.056L513.806 195.873Z" fill="#03C020"/>
<path d="M491.617 234.681L484.817 232.85L481.232 222.402L486.763 220.149L481.232 202.839L464.432 192.186L447.532 204.786L440.337 193.074L426.258 204.674L411.328 202.624L405.328 206.577L408.987 209.943L402.108 221.067L399.181 220.042L387.033 225.312L383.378 214.921L378.944 214.688L369.181 228.241L371.881 252.268L372.109 254.294L377.964 283.379L397.427 270.594L433.288 284.154L440.021 292.205L458.903 292.059L450.127 313.428L455.689 323.528L463.189 327.239L470.472 317.039L472.414 290.339L470.314 256.514L484.88 248.907L491.617 234.681Z" fill="#ACD143"/>
<path d="M486.766 220.146L481.235 222.399L484.82 232.847L491.62 234.678L498.148 220.906L505.748 217.606L481.234 202.839L486.766 220.146Z" fill="#47D15C"/>
<path d="M283.553 333.187L273.747 314.745L256.183 318.553L241.834 311.379L227.782 319.579L219.582 320.59L220.741 324.975L216.21 350.869L209.736 352.811L216.371 361.227L215.562 379.515L233.203 381.943L244.046 378.868L249.71 405.41L260.23 402.335L265.409 407.19L280.734 386.466L283.114 383.246L291.896 379.44L302.142 356.606L308.582 352.069L311.1 350.069L313.014 343.901L283.553 333.187Z" fill="#47D15C"/>
<path d="M186.95 238.487L187.828 225.167L168.214 226.484L165.727 192.966L160.75 196.771L149.333 184.184L139.233 184.623L132.354 196.771H122.254V202.626L114.496 201.895L111.861 204.676L101.322 202.776L96.266 209.015L102.966 212.495L108.753 209.583L114.417 209.259L115.712 218.322L113.446 220.75L117.168 225.605L114.093 230.622L125.422 242.922L145.814 248.422L178.991 262.822L194.117 244.485L186.95 238.487Z" fill="#ACD143"/>
<path d="M96.268 209.012L54.925 187.551L4.855 172.519L0 176.565L13.109 197.765L10.196 204.565L24.923 211.365L46.123 205.377L46.447 226.74H74.607L78.815 220.105L83.023 222.533L102.968 212.498L96.268 209.012Z" fill="#47D15C"/>
<path d="M231.446 203.065L212.52 174.733C211.407 182.123 209.492 194.576 209.492 194.576L165.728 192.967L168.216 226.486L187.83 225.169L186.952 238.489L194.125 244.489L178.997 262.826L185.797 299.726L210.073 298.917L208.778 311.864L218.488 316.396L219.595 320.588L227.795 319.577L241.847 311.377L256.184 318.548L273.748 314.743L283.554 333.185L278.431 311.962L286.631 298.935L309.314 282.248L310.802 251.019L312.095 223.847L318.195 210.181L231.446 203.065Z" fill="#039520"/>
<path d="M328.489 438.281L314.145 434.036L303.021 440.33L306.095 443.404L274.158 438.104L271.245 448.912L294.824 451.166L312.68 466.674L326 468.574L322.341 478.38L326.107 479.686L338.569 471.27L342.453 454.6L340.673 434.694L331.708 434.03L328.489 438.281Z" fill="#47D15C"/>
<path d="M326 468.579L312.68 466.679L294.823 451.159L271.244 448.905L242.922 465.448L220.422 493.448L231.265 491.348L242.108 505.914L247.287 501.706L271.887 516.595L280.626 527.924L273.826 532.779L274.312 541.195L286.612 534.56L294.219 517.081L315.744 501.221L326.102 479.696L322.336 478.39L326 468.579Z" fill="#039520"/>
<path d="M96.268 209.014L101.324 202.775L111.863 204.675L114.498 201.894L122.256 202.626V196.771H132.356L139.235 184.623L149.335 184.184L160.747 196.772L165.724 192.967L209.488 194.576C209.488 194.576 211.404 182.123 212.516 174.733L207.292 166.913L238.176 103.681L217.099 95.481L202.462 78.502V69.723L187.094 70.308L181.971 84.36L169.53 80.409L167.774 96.949L154.747 86.263L152.259 46.158L144.687 44.014L113.127 63.273L111.347 57.614L94.191 62.144L92.734 49.035L88.689 41.914L77.684 47.255L77.36 50.977L55.188 49.035L57.13 57.451L66.193 59.551L67.65 65.377H53.407V74.926L61.661 79.943L59.072 84.798L63.442 89.653L54.703 133.353L42.565 130.764L37.224 137.238L24.276 136.914L14.076 146.301L12.134 164.101L1.129 167.823L4.851 172.516L54.92 187.548L96.268 209.014Z" fill="#03C020"/>
<path d="M135 156C147.703 156 158 145.703 158 133C158 120.297 147.703 110 135 110C122.297 110 112 120.297 112 133C112 145.703 122.297 156 135 156Z" fill="#212121"/>
<path d="M135 155C147.15 155 157 145.15 157 133C157 120.85 147.15 111 135 111C122.85 111 113 120.85 113 133C113 145.15 122.85 155 135 155Z" stroke="white" stroke-width="2"/>
<path d="M139.227 121.669C139.227 119.521 137.486 117.779 135.338 117.779C133.189 117.779 131.448 119.521 131.448 121.669V145.006C131.448 147.154 133.189 148.896 135.338 148.896C137.486 148.896 139.227 147.154 139.227 145.006V121.669Z" fill="white"/>
<path d="M123.669 129.448C121.521 129.448 119.779 131.189 119.779 133.337C119.779 135.486 121.521 137.227 123.669 137.227H147.006C149.154 137.227 150.896 135.486 150.896 133.337C150.896 131.189 149.154 129.448 147.006 129.448H123.669Z" fill="white"/>
<path d="M280 165C292.703 165 303 154.703 303 142C303 129.297 292.703 119 280 119C267.297 119 257 129.297 257 142C257 154.703 267.297 165 280 165Z" fill="#212121"/>
<path d="M280 164C292.15 164 302 154.15 302 142C302 129.85 292.15 120 280 120C267.85 120 258 129.85 258 142C258 154.15 267.85 164 280 164Z" stroke="white" stroke-width="2"/>
<path d="M284.227 130.669C284.227 128.521 282.486 126.779 280.337 126.779C278.189 126.779 276.448 128.521 276.448 130.669V154.006C276.448 156.154 278.189 157.896 280.337 157.896C282.486 157.896 284.227 156.154 284.227 154.006V130.669Z" fill="white"/>
<path d="M268.669 138.448C266.521 138.448 264.779 140.189 264.779 142.337C264.779 144.486 266.521 146.227 268.669 146.227H292.006C294.154 146.227 295.896 144.486 295.896 142.337C295.896 140.189 294.154 138.448 292.006 138.448H268.669Z" fill="white"/>
<path d="M432 266C444.703 266 455 255.703 455 243C455 230.297 444.703 220 432 220C419.297 220 409 230.297 409 243C409 255.703 419.297 266 432 266Z" fill="#212121"/>
<path d="M432 265C444.15 265 454 255.15 454 243C454 230.85 444.15 221 432 221C419.85 221 410 230.85 410 243C410 255.15 419.85 265 432 265Z" stroke="white" stroke-width="2"/>
<path d="M436.227 231.669C436.227 229.521 434.486 227.779 432.337 227.779C430.189 227.779 428.448 229.521 428.448 231.669V255.006C428.448 257.154 430.189 258.896 432.337 258.896C434.486 258.896 436.227 257.154 436.227 255.006V231.669Z" fill="white"/>
<path d="M420.669 239.448C418.521 239.448 416.779 241.189 416.779 243.337C416.779 245.486 418.521 247.227 420.669 247.227H444.006C446.154 247.227 447.896 245.486 447.896 243.337C447.896 241.189 446.154 239.448 444.006 239.448H420.669Z" fill="white"/>
<path d="M281 503C293.703 503 304 492.703 304 480C304 467.297 293.703 457 281 457C268.297 457 258 467.297 258 480C258 492.703 268.297 503 281 503Z" fill="#212121"/>
<path d="M281 502C293.15 502 303 492.15 303 480C303 467.85 293.15 458 281 458C268.85 458 259 467.85 259 480C259 492.15 268.85 502 281 502Z" stroke="white" stroke-width="2"/>
<path d="M285.227 468.669C285.227 466.521 283.486 464.779 281.337 464.779C279.189 464.779 277.448 466.521 277.448 468.669V492.006C277.448 494.154 279.189 495.896 281.337 495.896C283.486 495.896 285.227 494.154 285.227 492.006V468.669Z" fill="white"/>
<path d="M269.669 476.448C267.521 476.448 265.779 478.189 265.779 480.337C265.779 482.486 267.521 484.227 269.669 484.227H293.006C295.154 484.227 296.896 482.486 296.896 480.337C296.896 478.189 295.154 476.448 293.006 476.448H269.669Z" fill="white"/>
<path d="M243 273C255.703 273 266 262.703 266 250C266 237.297 255.703 227 243 227C230.297 227 220 237.297 220 250C220 262.703 230.297 273 243 273Z" fill="#212121"/>
<path d="M243 272C255.15 272 265 262.15 265 250C265 237.85 255.15 228 243 228C230.85 228 221 237.85 221 250C221 262.15 230.85 272 243 272Z" stroke="white" stroke-width="2"/>
<path d="M247.227 238.669C247.227 236.521 245.486 234.779 243.337 234.779C241.189 234.779 239.448 236.521 239.448 238.669V262.006C239.448 264.154 241.189 265.896 243.337 265.896C245.486 265.896 247.227 264.154 247.227 262.006V238.669Z" fill="white"/>
<path d="M231.669 246.448C229.521 246.448 227.779 248.189 227.779 250.337C227.779 252.486 229.521 254.227 231.669 254.227H255.006C257.154 254.227 258.896 252.486 258.896 250.337C258.896 248.189 257.154 246.448 255.006 246.448H231.669Z" fill="white"/>
<path d="M407 349C419.703 349 430 338.703 430 326C430 313.297 419.703 303 407 303C394.297 303 384 313.297 384 326C384 338.703 394.297 349 407 349Z" fill="#212121"/>
<path d="M407 348C419.15 348 429 338.15 429 326C429 313.85 419.15 304 407 304C394.85 304 385 313.85 385 326C385 338.15 394.85 348 407 348Z" stroke="white" stroke-width="2"/>
<path d="M411.227 314.669C411.227 312.521 409.486 310.779 407.337 310.779C405.189 310.779 403.448 312.521 403.448 314.669V338.006C403.448 340.154 405.189 341.896 407.337 341.896C409.486 341.896 411.227 340.154 411.227 338.006V314.669Z" fill="white"/>
<path d="M395.669 322.448C393.521 322.448 391.779 324.189 391.779 326.337C391.779 328.486 393.521 330.227 395.669 330.227H419.006C421.154 330.227 422.896 328.486 422.896 326.337C422.896 324.189 421.154 322.448 419.006 322.448H395.669Z" fill="white"/>
</svg>
