<svg xmlns="http://www.w3.org/2000/svg" width="529.22" height="541.194" viewBox="0 0 529.22 541.194">
  <g id="MAPA" transform="translate(-80.77 -33.031)">
    <g id="Grupo_7391" data-name="Grupo 7391" transform="translate(80.77 33.031)">
      <g id="Grupo_7389" data-name="Grupo 7389" transform="translate(0)">
        <path id="Caminho_6147" data-name="Caminho 6147" d="M161.6,73.042l-11.005,5.341-.324,3.722L128.1,80.163l1.942,8.416,9.063,2.1,1.457,5.826H126.318v9.549l8.254,5.017-2.589,4.855,4.37,4.855-8.739,43.7-12.138-2.589-5.341,6.474-12.947-.324-10.2,9.387-1.942,17.8-11.005,3.722,3.722,4.693-4.855,4.046,13.109,21.2-2.913,6.8,14.727,6.8,21.2-5.988.324,21.363h28.16l4.208-6.635,4.208,2.428,25.733-12.947,5.664-.324,1.295,9.063-2.266,2.428,3.722,4.855-3.075,5.017,11.329,12.3,20.392,5.5,33.177,14.4,6.8,36.9,24.276-.809-1.295,12.947,9.71,4.531,2.266,8.578-4.531,25.894-6.474,1.942,6.635,8.416-.809,18.288,17.641,2.428,10.843-3.075,5.664,26.542,10.52-3.075,5.179,4.855-5.5,20.23H342.7l4.37,10.681-2.913,10.808-28.322,16.543-22.5,28,10.843-2.1,10.843,14.566,5.179-4.208,24.6,14.889,8.739,11.329-6.8,4.855.485,8.416,12.3-6.635,7.606-17.479,21.525-15.86,10.358-21.525,12.462-8.416,3.884-16.67-1.78-19.906,21.039-21.687,22.334-10.2,11.491-11.976,33.339,1.457,4.855-9.872,10.52-4.693,1.457-15.537,16.669-17.964.809-16.993,7.283-10.2,1.942-26.7-2.1-33.825,14.566-7.606,13.271-28,13.433-5.826-.324-5.5,14.08-17.155,3.884-25.571-9.872-22.01-23.629-2.428-36.9-30.264-22.172,2.428-4.37-4.693-23.143-5.5-6.474,6.312-12.138-19.259-5.988,3.884L425.237,111.4l-9.063,2.751,1.133-6.474-16.993-8.254-5.341,2.589-1.295-6.15,3.884-13.595-8.578-9.225-3.075,3.075-6.15-16.993-4.531-17.8-1.295,10.034L362.605,62.36l-3.237,14.4-14.242-5.179-13.109-.162L314.7,69.481l4.693,10.2-21.525-3.722L277.315,87.122l-13.109-4.855L260.16,62.846l5.664-14.4L260,42.292l-.324-11.167-9.063.324-1.78,9.872-28.646,12.3-2.266-4.693-23.3-3.237,9.549,18.45,12.624,7.606.809,3.4L186.037,94.4l-1.78-5.664L167.1,93.272l-1.457-13.109Z" transform="translate(-72.911 -31.125)" fill="#042e8b"/>
      </g>
      <g id="Grupo_7390" data-name="Grupo 7390" transform="translate(0)">
        <path id="Caminho_6148" data-name="Caminho 6148" d="M436.843,179.94l2.029-3.986-6.44-11.856,2.05-13.174-7.758-7.171,1.449-23.539-4.387.48L419.416,116l-3.378,10.773h-3.805l-7.025,10.538,2.927,13.174-5.562,7.465,4.1,14.05H393.5l-21.956,11.563-7.612,18,2.2,8.049v11.124l-.043.06,4.434.233,3.659,10.393,12.148-5.269,2.927,1.025,6.879-11.124-3.659-3.366,6-3.953,14.929,2.05,14.079-11.6,10.073-8.3L434.774,184Z" transform="translate(12.859 -6.11)" fill="#47d15c"/>
        <path id="Caminho_6149" data-name="Caminho 6149" d="M468.64,165.8l-12.291-3.687s4.4-8.707,4.609-9.321-7.375.513-7.375.513l-8.4,6.044-3.585-5.122.513,17.106-3.66,3.182,11.035,2.04,10.192-7.887,4.046,3.381-4.046,7.785,1.28,5.942,9.731-7.375,13.828-7.17,8.264,1.59,1.616-10.635-1.491-3.325-21.4-2.482Z" transform="translate(34.822 4.678)" fill="#47d15c"/>
        <path id="Caminho_6150" data-name="Caminho 6150" d="M483.807,143.553l-23.629-2.428-19.3,16.48,3.585,5.122,8.4-6.044s7.579-1.126,7.375-.513-4.609,9.321-4.609,9.321l12.291,3.687,2.868-9.423,21.4,2.482Z" transform="translate(35.538 1.294)" fill="#03c020"/>
        <path id="Caminho_6151" data-name="Caminho 6151" d="M468.564,148.014l-36.9-30.264L413.879,119.7l-1.449,23.539,7.758,7.171-2.049,13.174,6.44,11.856-2.029,3.986,14.018,1.459,6.145,6.862,3.408-2.962,3.66-3.182-.511-17.106Z" transform="translate(27.153 -5.595)" fill="#acd143"/>
        <path id="Caminho_6152" data-name="Caminho 6152" d="M401,112.88l-21.854-10.213-9.063,2.751,1.133-6.474-16.993-8.254-5.341,2.589-1.295-6.15-2.1-.211-3.448,6.9-9.63,3.923-5.8,15.693-6.686.119L301.384,76.576l-16.168-3.329s-.294-6.18-.536-10.7l-16.066-1.8,4.693,10.2-21.525-3.722L231.228,78.39l-1.94,13.729V100.9l14.637,16.979,21.077,8.2-30.884,63.232,5.224,7.82,18.926,28.332,86.745,7.118,12.055-27.025,3.366-12.88,13.026-15.955-4.1-9.952,14.344-8.2Z" transform="translate(-26.823 -22.394)" fill="#acd143"/>
        <path id="Caminho_6153" data-name="Caminho 6153" d="M236.5,82.266l-4.046-19.421,5.664-14.4-5.826-6.15-.324-11.167-9.063.324-1.78,9.872-28.646,12.3-2.266-4.693-23.3-3.237,9.549,18.45,12.624,7.606.809,3.4,7.575,2.14,2.488,40.105,13.026,10.685,1.757-16.54,12.441,3.951,5.123-14.052,15.368-.585,1.939-13.729Z" transform="translate(-45.207 -31.125)" fill="#47d15c"/>
        <path id="Caminho_6154" data-name="Caminho 6154" d="M288.775,82.986l18.547,36.975,6.686-.119,5.8-15.693,9.63-3.923,3.448-6.9,2.1.211,3.884-13.595-8.578-9.225L327.212,73.8,321.063,56.8,316.531,39l-1.295,10.034L303.907,60.039l-3.237,14.4-14.242-5.179L273.32,69.1l-1.251-.14c.242,4.516.536,10.7.536,10.7Z" transform="translate(-14.215 -28.804)" fill="#03c020"/>
        <path id="Caminho_6155" data-name="Caminho 6155" d="M337.478,154.9l15.368,5.708L350.8,183.737l7.173,13.026,6.147-3.366.732,5.416-7.758,11.417,10.1,14.637,6.69.352.043-.06V214.034l-2.2-8.049,7.612-18,21.956-11.563h13.172l-4.1-14.05,5.562-7.465L413,141.728l7.025-10.538h3.805l3.378-10.773-23.143-5.5-6.474,6.312-12.138-19.259-5.988,3.884-10.353-4.838-17.295,45.692Z" transform="translate(5.063 -10.527)" fill="#03c020"/>
        <path id="Caminho_6156" data-name="Caminho 6156" d="M452.789,282.958l8.782-21.369-18.882.146-6.733-8.051L400.1,240.125,380.629,252.91l-14.344-3.616v15.515l-8.343,18.149,3.805,8.856-7.172,7.977-7.319-3.074-28.25,6-3.325,10.714-1.914,6.168-2.518,2,13.905-3.22L335.4,319.7l-.439,5.27,25.469-5.27,5.27,19.029h8.782l-4.538,13.611,5.708,10.246,19.76-9.806,24-4.1,10.393-4.39,1.17-9.831,3.981-3.536,1.288-7.271,4.392,1.609,7.171-12-2.781-16.394,13.32-3.805Z" transform="translate(-2.667 30.472)" fill="#47d15c"/>
        <path id="Caminho_6157" data-name="Caminho 6157" d="M314.673,296.745Z" transform="translate(-1.658 47.159)" fill="#47d15c"/>
        <path id="Caminho_6158" data-name="Caminho 6158" d="M492.012,167.569l-13.828,7.17-9.73,7.376-1.28-5.941,4.046-7.785-4.046-3.379L456.982,172.9l-11.035-2.04-3.408,2.962-6.145-6.862L422.377,165.5l-2.069,4.064,2.781,6.879-10.073,8.3,7.195,11.712,16.9-12.6,16.8,10.653,6.555-6.248,8.706,6.248,8.4-.307,8.91-6.659,8.549.18,2.978-3.628,2.268-14.936Z" transform="translate(27.325 8.334)" fill="#039520"/>
        <path id="Caminho_6159" data-name="Caminho 6159" d="M314.673,296.745Z" transform="translate(-1.658 47.159)" fill="#47d15c"/>
        <path id="Caminho_6160" data-name="Caminho 6160" d="M381.105,212.951l-6.69-.352-10.1-14.637,7.758-11.417-.732-5.416-6.147,3.366-7.173-13.026,2.05-23.126L344.7,142.635l4.1,9.953-13.026,15.955-3.368,12.88-12.054,27.026-6.1,13.664-1.293,27.172,9.49-5.07-1.318,5.708,12.3,5.123,2.195-5.123,12.3,6.44,26.118-5.831-2.7-24.027Z" transform="translate(-2.162 1.739)" fill="#47d15c"/>
        <path id="Caminho_6161" data-name="Caminho 6161" d="M381.638,229.435l-.228-2.026-26.118,5.831L343,226.8l-2.195,5.123-12.3-5.123,1.318-5.708-9.49,5.07-1.488,31.23-22.687,16.685-8.2,13.027,5.123,21.223,29.461,10.714,3.325-10.714,28.25-6,7.319,3.074,7.171-7.977-3.805-8.856,8.343-18.149V254.9l14.344,3.616Z" transform="translate(-9.531 24.862)" fill="#03c020"/>
        <path id="Caminho_6162" data-name="Caminho 6162" d="M416.87,284.814l2.781,16.394-7.171,12-4.392-1.609-1.288,7.271,3.63,6.194,9.218.643.566-6.032,16.67-17.964.809-16.993-7.5-3.711Z" transform="translate(25.493 42.521)" fill="#039520"/>
        <path id="Caminho_6163" data-name="Caminho 6163" d="M419.433,316.447l-3.63-6.194-3.981,3.536-1.17,9.831-10.393,4.39-24,4.1,2.793,7.595,33.339,1.457,4.855-9.872,10.52-4.693.891-9.5Z" transform="translate(16.491 51.14)" fill="#03c020"/>
        <path id="Caminho_6164" data-name="Caminho 6164" d="M381.991,344.77l-5.708-10.246,4.538-13.611h-8.782l-5.27-19.028-25.468,5.27.439-5.27-10.245-1.317-13.905,3.22-6.44,4.537L300.9,331.157l-8.782,3.806-2.38,3.22h24.482l7.318,4.537h14.052l5.27,23.711,11.271,1.757-.146,4.1,8.6,2.892,10.136-10.448,22.334-10.2,11.491-11.976-2.793-7.595Z" transform="translate(-9.006 48.285)" fill="#acd143"/>
        <path id="Caminho_6165" data-name="Caminho 6165" d="M356.871,359.626,345.6,357.869l-5.27-23.712H326.28l-7.318-4.537H294.48l-15.316,20.721-5.5,20.23h9.872l4.37,10.681,31.937,5.3-3.074-3.074,11.124-6.294,14.344,4.245,3.22-4.245,8.965.664,10.9-11.238-8.6-2.892Z" transform="translate(-13.746 56.848)" fill="#03c020"/>
        <path id="Caminho_6166" data-name="Caminho 6166" d="M477.172,182.413l-8.91,6.659-8.4.307-8.706-6.248-6.555,6.248,24.51,14.774,5.831-2.53-.324-5.5,11.1-13.527Z" transform="translate(36.634 13.463)" fill="#03c020"/>
        <path id="Caminho_6167" data-name="Caminho 6167" d="M480.49,222.06l-6.8-1.831-3.585-10.448,5.531-2.253-5.531-17.31-16.8-10.653-16.9,12.6-7.195-11.712-14.079,11.6-14.93-2.05-6,3.953,3.659,3.366-6.879,11.124-2.927-1.025-12.148,5.27L372.251,202.3l-4.434-.233-9.763,13.553,2.7,24.027.228,2.026,5.855,29.085L386.3,257.973l35.861,13.56,6.733,8.051,18.882-.146L439,300.807l5.562,10.1,7.5,3.711,7.283-10.2,1.942-26.7-2.1-33.825,14.566-7.607Z" transform="translate(11.127 12.624)" fill="#acd143"/>
        <path id="Caminho_6168" data-name="Caminho 6168" d="M450.132,205.1l-5.531,2.253,3.585,10.448,6.8,1.831,6.528-13.772,7.6-3.3L444.6,187.793Z" transform="translate(36.634 15.049)" fill="#47d15c"/>
        <path id="Caminho_6169" data-name="Caminho 6169" d="M308.719,293.434l-9.806-18.442L281.349,278.8,267,271.626l-14.052,8.2-8.2,1.011,1.159,4.385-4.531,25.894-6.474,1.942,6.635,8.416-.809,18.288,17.641,2.428,10.843-3.075,5.664,26.542,10.52-3.075,5.179,4.855L305.9,346.713l2.38-3.22,8.782-3.806,10.246-22.834,6.44-4.537,2.518-2,1.914-6.168Z" transform="translate(-25.166 39.756)" fill="#47d15c"/>
        <path id="Caminho_6170" data-name="Caminho 6170" d="M237.947,227.688l.878-13.32-19.614,1.317-2.487-33.518-4.977,3.805L200.33,173.385l-10.1.439-6.879,12.148h-10.1v5.855l-7.758-.731-2.635,2.781-10.539-1.9-5.056,6.239,6.7,3.48,5.787-2.912,5.664-.324,1.295,9.063-2.266,2.428,3.722,4.855-3.075,5.017,11.329,12.3,20.392,5.5,33.177,14.4,15.126-18.337Z" transform="translate(-50.997 10.802)" fill="#acd143"/>
        <path id="Caminho_6171" data-name="Caminho 6171" d="M169.179,200.868l-41.343-21.461L77.766,164.375l-4.855,4.046,13.109,21.2-2.913,6.8,14.727,6.8,21.2-5.988.324,21.363h28.16l4.208-6.635,4.208,2.428,19.945-10.035Z" transform="translate(-72.911 8.147)" fill="#47d15c"/>
        <path id="Caminho_6172" data-name="Caminho 6172" d="M266.632,194.417l-18.926-28.332c-1.113,7.39-3.028,19.843-3.028,19.843l-43.764-1.609,2.488,33.519,19.614-1.317-.878,13.32,7.173,6-15.128,18.337,6.8,36.9,24.276-.809-1.295,12.947,9.71,4.532,1.107,4.192,8.2-1.011,14.052-8.2L291.37,309.9l17.564-3.805,9.806,18.442-5.123-21.223,8.2-13.027L344.5,273.6l1.488-31.229,1.293-27.172,6.1-13.666Z" transform="translate(-35.186 8.651)" fill="#039520"/>
        <path id="Caminho_6173" data-name="Caminho 6173" d="M339.656,370.607l-14.344-4.245-11.124,6.294,3.074,3.074-31.937-5.3-2.913,10.808,23.579,2.254L323.847,399l13.32,1.9-3.659,9.806,3.766,1.306,12.462-8.416,3.884-16.67-1.78-19.906-8.965-.664Z" transform="translate(-11.167 67.677)" fill="#47d15c"/>
        <path id="Caminho_6174" data-name="Caminho 6174" d="M348.735,397.52l-13.32-1.9L317.558,380.1l-23.579-2.254-28.322,16.543-22.5,28,10.843-2.1,10.843,14.566,5.179-4.208,24.6,14.889,8.739,11.329-6.8,4.855.486,8.416,12.3-6.635,7.607-17.479,21.525-15.86,10.358-21.525-3.766-1.306Z" transform="translate(-22.735 71.062)" fill="#039520"/>
        <path id="Caminho_6175" data-name="Caminho 6175" d="M168.921,230.6l5.056-6.239,10.539,1.9,2.635-2.781,7.758.732v-5.855h10.1l6.879-12.148,10.1-.439L233.4,218.358l4.977-3.805,43.764,1.609s1.916-12.453,3.028-19.843l-5.224-7.82,30.884-63.232-21.077-8.2-14.637-16.979V91.309l-15.368.585-5.123,14.052-12.441-3.951-1.756,16.54L227.4,107.849l-2.488-40.105L217.34,65.6l-31.56,19.259L184,79.2,166.844,83.73l-1.457-13.109L161.342,63.5l-11.005,5.341-.324,3.722-22.172-1.942,1.942,8.416,9.063,2.1,1.457,5.826H126.06v9.549l8.254,5.017-2.589,4.855,4.37,4.855-8.739,43.7-12.138-2.589-5.341,6.474L96.929,158.5l-10.2,9.387-1.942,17.8-11.005,3.722,3.722,4.693,50.069,15.032Z" transform="translate(-72.653 -21.583)" fill="#03c020"/>
      </g>
    </g>
  </g>
</svg>
